<?xml version="1.0" standalone="no"?>
<!DOCTYPE svg PUBLIC "-//W3C//DTD SVG 20010904//EN"
 "http://www.w3.org/TR/2001/REC-SVG-20010904/DTD/svg10.dtd">
<svg version="1.0" xmlns="http://www.w3.org/2000/svg"
 width="1024.000000pt" height="1024.000000pt" viewBox="0 0 1024.000000 1024.000000"
 preserveAspectRatio="xMidYMid meet">

<g transform="translate(0.000000,1024.000000) scale(0.100000,-0.100000)"
fill="#00dcf0ff" stroke="none">
<path d="M2940 9043 c-260 -16 -527 -83 -749 -189 -349 -166 -624 -431 -792
-765 -121 -243 -175 -470 -199 -844 -13 -207 -13 -4104 0 -4300 33 -486 146
-802 395 -1110 149 -183 306 -310 526 -423 213 -109 435 -174 719 -209 135
-17 286 -18 2280 -18 2288 0 2251 -1 2508 51 444 89 832 326 1075 656 189 257
286 521 334 903 17 130 18 296 18 2285 0 2267 -1 2332 -46 2555 -125 622 -546
1101 -1141 1300 -162 54 -340 90 -511 104 -117 10 -4262 13 -4417 4z m2248
-775 c23 -13 104 -81 179 -152 289 -271 462 -435 588 -556 182 -176 517 -493
665 -631 291 -271 330 -317 330 -389 0 -40 -34 -105 -65 -126 -58 -38 -135
-35 -189 7 l-26 20 0 -1103 c0 -1030 -1 -1105 -18 -1137 -30 -61 -61 -76 -168
-79 l-94 -4 -1 1299 -1 1298 -111 100 c-114 103 -735 684 -912 854 -55 53
-133 127 -173 165 l-72 69 -63 -59 c-34 -32 -244 -232 -467 -444 -223 -211
-446 -423 -495 -470 -50 -47 -123 -116 -163 -153 l-72 -69 0 -1289 0 -1289
-25 -6 c-14 -3 -58 -4 -98 -2 -56 3 -79 8 -104 27 -66 50 -63 -12 -63 1191 0
600 -3 1090 -6 1090 -3 0 -20 -10 -36 -22 -43 -30 -113 -34 -158 -10 -53 29
-80 75 -80 137 0 69 20 96 201 265 79 74 191 180 249 235 58 56 155 148 215
205 61 58 178 170 260 250 167 162 443 424 667 633 186 174 221 191 306 145z
m-128 -1237 c11 -21 14 -268 4 -295 -9 -24 -305 -24 -325 1 -10 12 -14 51 -14
150 0 122 2 136 19 149 15 10 55 14 163 14 130 0 143 -2 153 -19z m444 3 c13
-12 16 -41 16 -149 0 -108 -3 -137 -16 -149 -13 -13 -42 -16 -165 -16 l-149 0
-10 26 c-6 14 -10 78 -10 142 0 167 -6 162 175 162 117 0 146 -3 159 -16z
m-453 -424 c17 -10 19 -23 19 -163 0 -106 -4 -157 -12 -165 -8 -8 -58 -12
-159 -12 -188 0 -179 -9 -179 182 0 175 -7 168 178 168 73 0 142 -5 153 -10z
m451 -7 c16 -14 18 -33 18 -163 0 -100 -4 -150 -12 -158 -8 -8 -58 -12 -159
-12 -187 0 -179 -8 -179 175 0 182 -7 175 172 175 118 0 145 -3 160 -17z
m-294 -609 l22 -6 0 -264 0 -264 80 0 80 0 0 251 0 251 33 -7 c17 -4 61 -17
97 -29 l65 -22 3 -222 2 -222 80 0 80 0 0 169 c0 99 4 172 10 176 25 15 136
-71 167 -130 10 -18 18 -67 21 -122 l5 -93 48 0 49 0 0 93 c0 97 11 126 54
141 47 16 46 34 46 -795 l0 -779 -50 0 -50 0 0 70 0 70 -50 0 -50 0 0 -70 0
-70 -100 0 -100 0 0 70 0 70 -80 0 -80 0 0 -70 0 -70 -105 0 -105 0 0 70 0 70
-80 0 -80 0 0 -70 0 -70 -100 0 -100 0 0 70 0 70 -80 0 -80 0 0 -70 0 -70
-100 0 -100 0 0 70 0 70 -82 0 -83 0 1 -70 0 -70 -103 0 -103 0 0 70 0 70 -45
0 -45 0 0 -70 0 -70 -55 0 -55 0 0 779 c0 839 -2 812 50 796 41 -13 60 -62 60
-152 l0 -83 45 0 45 0 0 63 c0 120 41 198 138 264 l62 43 0 -185 0 -185 85 0
85 0 2 228 3 227 65 21 c36 12 80 25 98 29 l32 7 0 -256 0 -256 80 0 80 0 0
244 c0 135 4 256 10 270 9 25 13 26 82 26 40 0 83 -3 96 -6z m-2726 -2405
c168 -36 293 -163 344 -350 27 -99 25 -312 -3 -404 -69 -221 -230 -345 -450
-345 -233 0 -388 118 -457 350 -25 84 -32 269 -12 360 42 201 168 343 341 386
64 16 169 17 237 3z m2943 -4 c82 -22 170 -71 212 -119 38 -44 79 -123 89
-172 l5 -29 -108 -26 -108 -26 -27 58 c-35 78 -86 112 -175 117 -86 6 -140
-16 -195 -77 -71 -79 -102 -220 -79 -357 21 -120 62 -188 141 -237 48 -30 177
-31 234 -2 59 30 98 84 104 145 l5 50 -117 0 -116 0 0 95 0 95 230 0 230 0 0
-102 c0 -57 -4 -129 -10 -161 -28 -173 -156 -304 -330 -337 -118 -22 -272 -5
-362 41 -23 12 -67 46 -98 75 -95 91 -139 206 -147 391 -9 199 39 348 149 456
97 96 193 135 338 136 42 1 102 -6 135 -14z m-2110 -192 c66 -108 142 -233
169 -277 27 -45 69 -115 93 -156 l43 -75 0 353 0 352 110 0 110 0 0 -540 0
-541 -101 3 -102 3 -98 150 c-54 83 -149 228 -211 324 l-113 175 -3 -327 -2
-327 -110 0 -110 0 0 540 0 540 103 0 102 -1 120 -196z m1365 92 l0 -105 -205
0 -205 0 0 -115 0 -115 188 -2 187 -3 0 -100 0 -100 -187 -3 -188 -2 0 -115 0
-115 215 0 215 0 0 -100 0 -100 -330 0 -330 0 0 540 0 540 320 0 320 0 0 -105z
m1773 88 c3 -10 69 -205 147 -433 78 -228 157 -460 176 -514 19 -55 34 -104
34 -108 0 -4 -55 -8 -122 -8 l-123 0 -24 73 c-13 39 -30 87 -38 105 l-13 32
-179 0 -178 0 -33 -105 -34 -105 -118 0 c-65 0 -118 1 -118 3 0 2 81 243 180
537 99 294 180 535 180 537 0 2 58 3 129 3 114 0 129 -2 134 -17z m1087 -93
l0 -110 -145 0 -145 0 2 -430 3 -430 -117 0 -118 0 0 430 0 430 -145 0 -145 0
0 110 0 110 405 0 405 0 0 -110z m758 -2 l3 -108 -206 0 -205 0 0 -110 0 -110
184 0 185 0 3 -105 3 -105 -187 0 -188 0 0 -119 0 -118 213 0 212 0 3 -97 3
-96 -328 0 -328 0 2 537 c2 296 3 539 3 541 0 1 141 1 313 0 l312 -3 3 -107z"/>
<path d="M4200 4855 l0 -445 45 0 45 0 0 445 0 445 -45 0 -45 0 0 -445z"/>
<path d="M4498 4855 l2 -445 80 0 80 0 0 445 0 445 -82 0 -83 0 3 -445z"/>
<path d="M4860 4855 l0 -445 80 0 80 0 0 445 0 445 -80 0 -80 0 0 -445z"/>
<path d="M5226 4857 l2 -442 76 -3 76 -3 0 200 c0 167 -2 200 -15 205 -25 9
-55 69 -55 110 0 31 7 45 40 78 l40 40 0 129 0 129 -82 0 -83 0 1 -443z"/>
<path d="M5590 5086 c0 -214 0 -215 -25 -244 -25 -30 -25 -31 -25 -231 l0
-201 104 0 104 0 6 36 c8 39 6 821 -2 842 -3 8 -29 12 -83 12 l-79 0 0 -214z"/>
<path d="M5950 4855 l0 -445 50 0 50 0 0 445 0 445 -50 0 -50 0 0 -445z"/>
<path d="M2286 3375 c-52 -18 -100 -67 -128 -129 -21 -46 -23 -66 -23 -201 0
-135 2 -155 23 -200 28 -60 75 -112 119 -131 50 -21 149 -18 200 7 55 27 85
67 113 149 19 57 22 81 18 195 -4 108 -8 139 -28 183 -51 117 -174 170 -294
127z"/>
<path d="M6310 3290 c0 -3 -27 -86 -59 -185 l-57 -180 114 -3 c63 -1 117 -1
119 2 2 2 -22 87 -55 188 -33 100 -61 181 -62 178z"/>
</g>
</svg>
